<svg width="24" height="24" viewBox="0 0 24 24" fill="none" xmlns="http://www.w3.org/2000/svg">
<path d="M6.76408 10.1717C6.76408 10.4648 6.79601 10.7024 6.85189 10.8766C6.91574 11.0509 6.99557 11.2409 7.10732 11.4469C7.14723 11.5102 7.16319 11.5736 7.16319 11.629C7.16319 11.7082 7.1153 11.7874 7.01153 11.8666L6.50865 12.1993C6.43681 12.2468 6.36497 12.2705 6.30111 12.2705C6.22129 12.2705 6.14147 12.2309 6.06164 12.1597C5.94989 12.0409 5.85411 11.9141 5.77428 11.7874C5.69446 11.6528 5.61464 11.5023 5.52683 11.3201C4.90422 12.0488 4.12196 12.4131 3.18005 12.4131C2.50955 12.4131 1.97474 12.223 1.58361 11.8429C1.19248 11.4627 0.99292 10.9558 0.99292 10.3222C0.99292 9.64903 1.23239 9.10255 1.7193 8.69071C2.20622 8.27887 2.85278 8.07295 3.67495 8.07295C3.94635 8.07295 4.22573 8.09671 4.52107 8.13631C4.81641 8.17591 5.11974 8.23927 5.43903 8.31055V7.73239C5.43903 7.13047 5.31131 6.71072 5.06386 6.4652C4.80843 6.21968 4.37739 6.10088 3.76276 6.10088C3.48338 6.10088 3.19602 6.13256 2.90068 6.20384C2.60533 6.27512 2.31797 6.36224 2.03859 6.47312C1.91088 6.52856 1.81509 6.56024 1.75922 6.57608C1.70334 6.59192 1.66343 6.59984 1.6315 6.59984C1.51975 6.59984 1.46387 6.52064 1.46387 6.35432V5.96624C1.46387 5.83952 1.47984 5.74448 1.51975 5.68904C1.55966 5.6336 1.6315 5.57816 1.74325 5.52272C2.02263 5.38016 2.35788 5.26136 2.74901 5.16632C3.14014 5.06336 3.55522 5.01584 3.99424 5.01584C4.94413 5.01584 5.63859 5.22968 6.08559 5.65736C6.52461 6.08504 6.74812 6.73448 6.74812 7.60567V10.1717H6.76408ZM3.52329 11.3756C3.7867 11.3756 4.0581 11.3281 4.34546 11.233C4.63282 11.138 4.88825 10.9637 5.10377 10.7261C5.23149 10.5757 5.32728 10.4093 5.37517 10.2193C5.42306 10.0292 5.45499 9.79951 5.45499 9.53023V9.19759C5.22351 9.14215 4.97606 9.09463 4.72063 9.06295C4.4652 9.03127 4.21775 9.01543 3.9703 9.01543C3.43549 9.01543 3.04436 9.11839 2.78094 9.33223C2.51753 9.54607 2.38981 9.84703 2.38981 10.243C2.38981 10.6153 2.4856 10.8925 2.68516 11.0825C2.87673 11.2805 3.15611 11.3756 3.52329 11.3756ZM9.93303 12.2309C9.78935 12.2309 9.69356 12.2072 9.62971 12.1517C9.56585 12.1042 9.50997 11.9933 9.46208 11.8429L7.58625 5.72072C7.53836 5.56232 7.51441 5.45936 7.51441 5.40392C7.51441 5.2772 7.57827 5.20592 7.70599 5.20592H8.48825C8.63991 5.20592 8.74368 5.22968 8.79955 5.28512C8.86341 5.33264 8.91131 5.44352 8.9592 5.594L10.3002 10.837L11.5454 5.594C11.5854 5.4356 11.6332 5.33264 11.6971 5.28512C11.761 5.2376 11.8727 5.20592 12.0164 5.20592H12.655C12.8066 5.20592 12.9104 5.22968 12.9743 5.28512C13.0381 5.33264 13.094 5.44352 13.1259 5.594L14.3871 10.9004L15.7681 5.594C15.8159 5.4356 15.8718 5.33264 15.9277 5.28512C15.9916 5.2376 16.0953 5.20592 16.239 5.20592H16.9814C17.1091 5.20592 17.1809 5.26928 17.1809 5.40392C17.1809 5.44352 17.1729 5.48312 17.1649 5.53064C17.157 5.57816 17.141 5.64152 17.1091 5.72864L15.1853 11.8508C15.1375 12.0092 15.0816 12.1121 15.0177 12.1597C14.9539 12.2072 14.8501 12.2389 14.7144 12.2389H14.0279C13.8763 12.2389 13.7725 12.2151 13.7086 12.1597C13.6448 12.1042 13.5889 12.0013 13.557 11.8429L12.3197 6.73448L11.0905 11.8349C11.0505 11.9933 11.0027 12.0963 10.9388 12.1517C10.8749 12.2072 10.7632 12.2309 10.6195 12.2309H9.93303ZM20.1902 12.4448C19.7751 12.4448 19.3601 12.3973 18.9609 12.3022C18.5618 12.2072 18.2505 12.1042 18.043 11.9854C17.9153 11.9141 17.8275 11.8349 17.7955 11.7637C17.7636 11.6924 17.7476 11.6132 17.7476 11.5419V11.138C17.7476 10.9717 17.8115 10.8925 17.9312 10.8925C17.9791 10.8925 18.027 10.9004 18.0749 10.9162C18.1228 10.9321 18.1947 10.9637 18.2745 10.9954C18.5459 11.1142 18.8412 11.2093 19.1525 11.2726C19.4718 11.336 19.7831 11.3677 20.1024 11.3677C20.6053 11.3677 20.9964 11.2805 21.2678 11.1063C21.5392 10.9321 21.6829 10.6786 21.6829 10.3539C21.6829 10.1321 21.6111 9.94999 21.4674 9.79951C21.3237 9.64903 21.0523 9.51439 20.6612 9.38767L19.5037 9.03127C18.921 8.84911 18.49 8.57983 18.2266 8.22343C17.9632 7.87495 17.8275 7.48687 17.8275 7.07503C17.8275 6.7424 17.8993 6.44936 18.043 6.19592C18.1867 5.94248 18.3782 5.72072 18.6177 5.54648C18.8572 5.36432 19.1286 5.22968 19.4479 5.13464C19.7672 5.0396 20.1024 5 20.4536 5C20.6292 5 20.8128 5.00792 20.9884 5.03168C21.172 5.05544 21.3397 5.08712 21.5073 5.1188C21.6669 5.1584 21.8186 5.198 21.9623 5.24552C22.106 5.29304 22.2177 5.34056 22.2975 5.38808C22.4093 5.45144 22.4891 5.5148 22.537 5.58608C22.5849 5.64944 22.6088 5.73656 22.6088 5.84744V6.21968C22.6088 6.386 22.545 6.47312 22.4252 6.47312C22.3614 6.47312 22.2576 6.44144 22.1219 6.37808C21.6669 6.17216 21.1561 6.0692 20.5893 6.0692C20.1343 6.0692 19.7751 6.14048 19.5277 6.29096C19.2802 6.44144 19.1525 6.67112 19.1525 6.99584C19.1525 7.21759 19.2323 7.40767 19.392 7.55815C19.5516 7.70863 19.847 7.85911 20.27 7.99375L21.4035 8.35015C21.9782 8.53231 22.3933 8.78575 22.6408 9.11047C22.8882 9.43519 23.0079 9.80743 23.0079 10.2193C23.0079 10.5598 22.9361 10.8687 22.8004 11.138C22.6567 11.4073 22.4652 11.6449 22.2177 11.8349C21.9703 12.0329 21.6749 12.1755 21.3317 12.2785C20.9725 12.3893 20.5973 12.4448 20.1902 12.4448Z" fill="white"/>
<path fill-rule="evenodd" clip-rule="evenodd" d="M21.6983 16.294C19.0721 18.2186 15.2566 19.2403 11.9759 19.2403C7.37815 19.2403 3.23536 17.5533 0.106325 14.7496C-0.141125 14.5279 0.0823781 14.2269 0.377721 14.4012C3.76219 16.3495 7.9369 17.5295 12.2553 17.5295C15.1688 17.5295 18.3697 16.9276 21.3151 15.6921C21.7542 15.4941 22.1293 15.9772 21.6983 16.294Z" fill="#FF9900"/>
<path fill-rule="evenodd" clip-rule="evenodd" d="M22.791 15.0586C22.4557 14.6309 20.5719 14.8527 19.7178 14.9557C19.4624 14.9873 19.4225 14.7656 19.654 14.5993C21.1546 13.5538 23.6211 13.8548 23.9085 14.2033C24.1959 14.5597 23.8287 17.0069 22.4238 18.1791C22.2083 18.3613 22.0007 18.2662 22.0965 18.0286C22.4158 17.2445 23.1262 15.4784 22.791 15.0586Z" fill="#FF9900"/>
</svg>
