<svg width="24" height="24" viewBox="0 0 24 24" fill="none" xmlns="http://www.w3.org/2000/svg">
<g clip-path="url(#clip0_443_27594)">
<path d="M13.6042 10.0804H15.8241ZM10.9615 10.0804H13.1814ZM8.37157 10.0804H10.5915ZM5.78167 10.0804H7.94873ZM3.13892 10.0804H5.35883ZM5.78167 7.64911H7.94873ZM8.37157 7.64911H10.5915ZM10.9615 7.64911H13.1814ZM10.9615 5.21777H13.1814Z" fill="black"/>
<path d="M13.6042 10.0804H15.8241M10.9615 10.0804H13.1814M8.37157 10.0804H10.5915M5.78167 10.0804H7.94873M3.13892 10.0804H5.35883M5.78167 7.64911H7.94873M8.37157 7.64911H10.5915M10.9615 7.64911H13.1814M10.9615 5.21777H13.1814" stroke="#3F8FDC" stroke-width="2.00849"/>
<path d="M22.9068 10.1861C22.9068 10.1861 21.9554 9.28754 19.9998 9.60467C19.7884 8.07188 18.1498 7.17334 18.1498 7.17334C18.1498 7.17334 16.6171 9.02327 17.727 11.0846C17.4099 11.2432 16.8813 11.4546 16.0885 11.4546H1.55335C1.28907 12.4588 1.28907 19.1186 8.58308 19.1186C13.8157 19.1186 17.727 16.6873 19.5769 12.2474C22.3254 12.4588 22.9068 10.1861 22.9068 10.1861Z" fill="#3F8FDC"/>
</g>
<defs>
<clipPath id="clip0_443_27594">
<rect width="24" height="24" fill="white"/>
</clipPath>
</defs>
</svg>
