<svg width="24" height="24" viewBox="0 0 24 24" fill="none" xmlns="http://www.w3.org/2000/svg">
<g clip-path="url(#clip0_443_27547)">
<path d="M24 18.5628C23.127 18.7848 22.587 18.5725 22.1025 17.845L18.657 13.078L18.159 12.418L14.1353 17.8608C13.6755 18.5155 13.1933 18.8005 12.3353 18.5688L17.4877 11.6523L12.6907 5.40478C13.5157 5.24428 14.0857 5.32603 14.592 6.06478L18.1658 10.891L21.7657 6.09103C22.227 5.43628 22.7227 5.18728 23.5507 5.42878L21.6907 7.89478L19.1708 11.176C18.8708 11.551 18.912 11.8075 19.188 12.1698L24 18.5628ZM0.006 11.5368L0.4275 9.46378C1.575 5.36128 6.2775 3.65653 9.5205 6.19153C11.4158 7.68253 11.8867 9.79153 11.793 12.154H1.11C0.9495 16.4065 4.01025 18.973 7.9125 17.6635C9.28125 17.2038 10.0875 16.132 10.491 14.791C10.6957 14.119 11.0348 14.014 11.6663 14.206C11.3438 15.883 10.6162 17.284 9.07875 18.1608C6.7815 19.4733 3.5025 19.0488 1.7775 17.2248C0.75 16.1665 0.3255 14.8255 0.135 13.3915C0.105 13.1545 0.045 12.9288 0 12.7015C0.004 12.3135 0.006 11.9255 0.006 11.5375V11.5368ZM1.1295 11.2518H10.7835C10.7205 8.17678 8.80575 5.99278 6.189 5.97403C3.3165 5.95153 1.254 8.08378 1.1295 11.2518Z" fill="white"/>
</g>
<defs>
<clipPath id="clip0_443_27547">
<rect width="24" height="24" fill="white"/>
</clipPath>
</defs>
</svg>
