<svg width="24" height="24" viewBox="0 0 24 24" fill="none" xmlns="http://www.w3.org/2000/svg">
<g clip-path="url(#clip0_443_27535)">
<path d="M24 0H0V24H24V0Z" fill="#F7DF1E"/>
<path d="M16.1208 18.7506C16.6042 19.54 17.2332 20.1202 18.3455 20.1202C19.28 20.1202 19.877 19.6531 19.877 19.0078C19.877 18.2345 19.2636 17.9606 18.2351 17.5106L17.6713 17.2687C16.0438 16.5754 14.9627 15.7068 14.9627 13.8706C14.9627 12.1792 16.2514 10.8916 18.2655 10.8916C19.6994 10.8916 20.7303 11.3906 21.4732 12.6973L19.717 13.8249C19.3303 13.1316 18.9132 12.8585 18.2655 12.8585C17.6179 12.8585 17.1863 13.2775 17.1863 13.8249C17.1863 14.5015 17.6054 14.7754 18.573 15.1945L19.1368 15.436C21.053 16.2577 22.1349 17.0954 22.1349 18.9788C22.1349 21.0093 20.5398 22.1217 18.3977 22.1217C16.2556 22.1217 14.9501 21.1236 14.288 19.8154L16.1208 18.7506V18.7506ZM8.15392 18.9461C8.50821 19.5746 8.8305 20.1061 9.60535 20.1061C10.3802 20.1061 10.8137 19.8162 10.8137 18.6889V11.0204H13.069V18.7194C13.069 21.0546 11.6998 22.1175 9.70135 22.1175C7.89564 22.1175 6.84992 21.183 6.31812 20.0573L8.15392 18.9461V18.9461Z" fill="black"/>
</g>
<defs>
<clipPath id="clip0_443_27535">
<rect width="24" height="24" fill="white"/>
</clipPath>
</defs>
</svg>
