<svg width="24" height="24" viewBox="0 0 24 24" fill="none" xmlns="http://www.w3.org/2000/svg">
<g clip-path="url(#clip0_443_27578)">
<path d="M20.7686 12.2405C20.7686 11.0101 19.7712 10.0127 18.5407 10.0127C18.4616 10.0127 18.3835 10.0169 18.3066 10.025L21.3666 1H8.36277L11.4185 10.0172C11.3736 10.0144 11.3286 10.0127 11.2831 10.0127C10.0527 10.0127 9.05521 11.0101 9.05521 12.2405C9.05521 13.2351 9.70701 14.0771 10.6066 14.3636C10.1315 15.1866 9.5336 15.9278 8.85481 16.5683C7.93183 17.439 6.87548 18.0992 5.73295 18.5061C4.37271 17.8073 3.73032 16.2533 4.30997 14.8906C4.37537 14.7368 4.44225 14.5808 4.50607 14.4255C5.49158 14.1955 6.22586 13.3121 6.22586 12.2565C6.22586 11.0261 5.22844 10.0287 3.99798 10.0287C2.76756 10.0287 1.77009 11.0261 1.77009 12.2565C1.77009 13.011 2.14553 13.6775 2.71936 14.0805C2.16795 15.336 1.35738 16.6499 1.10485 18.1728C0.802216 19.9979 1.10387 21.9352 2.68236 23.0292C6.35852 25.5771 10.349 21.4497 14.5563 20.4122C16.0812 20.0361 17.7549 20.0967 19.0984 19.3187C20.1072 18.7343 20.7723 17.766 20.961 16.6789C21.1475 15.6049 20.8757 14.5356 20.2505 13.6686C20.5738 13.2819 20.7686 12.784 20.7686 12.2405Z" fill="#99425B"/>
<path d="M19.9717 16.1298C19.8079 17.0737 19.2249 17.8981 18.3724 18.3919C17.5777 18.8522 16.6254 18.9896 15.6172 19.1349C15.077 19.2128 14.5185 19.2934 13.9729 19.428C12.5301 19.7837 11.1327 20.4778 9.78136 21.149C7.07694 22.4924 4.74138 23.6523 2.53912 22.1261C0.925977 21.008 1.00047 18.9394 1.1884 17.8059C1.36258 16.7557 1.83345 15.7885 2.28883 14.8531C2.3675 14.6914 2.44461 14.5327 2.51964 14.3753C2.74534 14.4655 2.9854 14.527 3.23564 14.555C2.77211 16.0848 3.50106 17.7482 5.03112 18.5342L5.24049 18.6418L5.46228 18.5628C6.67185 18.132 7.78642 17.4408 8.77502 16.5081C9.41403 15.9052 9.96348 15.2382 10.415 14.5255C10.5504 14.5459 10.6889 14.5566 10.8299 14.5566C12.2341 14.5566 13.397 13.5068 13.577 12.1509C14.1518 12.1299 14.7623 12.1297 15.3404 12.1507C15.5203 13.5067 16.6832 14.5566 18.0875 14.5566C18.6747 14.5566 19.2193 14.3726 19.668 14.06C19.9795 14.6977 20.0958 15.4151 19.9717 16.1298ZM3.54475 10.1169C4.47324 10.1169 5.22852 10.8722 5.22852 11.8006C5.22852 12.1341 5.13069 12.4451 4.96267 12.707C4.68272 13.1435 4.20711 13.4427 3.66043 13.48C3.62218 13.4826 3.58366 13.4844 3.54475 13.4844C3.33788 13.4844 3.13966 13.4466 2.9564 13.3781C2.5857 13.2394 2.2768 12.9734 2.0825 12.6338C1.94184 12.3879 1.86099 12.1036 1.86099 11.8006C1.86099 10.8722 2.61633 10.1169 3.54475 10.1169ZM9.14611 11.7846C9.14611 10.9411 9.76967 10.2407 10.58 10.1195C10.6615 10.1073 10.745 10.1009 10.8299 10.1009C11.3696 10.1009 11.8502 10.3566 12.1584 10.7528C12.2351 10.8513 12.3015 10.9581 12.355 11.0721C12.4566 11.2887 12.5136 11.53 12.5136 11.7846C12.5136 11.9193 12.4973 12.0501 12.4673 12.1756C12.3032 12.8626 11.7175 13.3876 10.9997 13.4599C10.9439 13.4655 10.8872 13.4684 10.8299 13.4684C10.4937 13.4684 10.1805 13.369 9.91734 13.1986C9.45375 12.8983 9.14611 12.3769 9.14611 11.7846ZM16.1735 9.78245C15.8128 10.1276 15.5446 10.5685 15.411 11.0644C14.7875 11.041 14.1264 11.041 13.5064 11.0644C13.364 10.5359 13.0687 10.0696 12.6714 9.71547L14.4137 6.19248L16.1735 9.78245ZM8.66848 1.08823H20.1543L17.4415 9.08925C17.3239 9.11749 17.2092 9.15302 17.0979 9.19573L14.418 3.72888L11.7306 9.16308C11.6144 9.12309 11.4947 9.09088 11.3721 9.06645L8.66848 1.08823ZM19.7713 11.7846C19.7713 11.9535 19.746 12.1164 19.6996 12.2703C19.5891 12.6364 19.3571 12.9501 19.0507 13.1646C18.7775 13.3558 18.4455 13.4684 18.0875 13.4684C17.3101 13.4684 16.6543 12.9386 16.4615 12.2211C16.424 12.0818 16.4038 11.9356 16.4038 11.7846C16.4038 11.5545 16.4503 11.335 16.5342 11.1351C16.5775 11.032 16.6315 10.9346 16.6934 10.8431C16.9965 10.3959 17.5078 10.1009 18.0875 10.1009C18.1407 10.1009 18.1931 10.1036 18.245 10.1085C19.0999 10.1881 19.7713 10.9093 19.7713 11.7846ZM20.8595 11.7846C20.8595 10.4313 19.8845 9.30216 18.6002 9.0609L21.6723 0H7.15067L10.2275 9.07934C8.98777 9.35521 8.05788 10.463 8.05788 11.7846C8.05788 12.777 8.58235 13.6487 9.36832 14.1385C8.99027 14.7018 8.54192 15.2318 8.02822 15.7165C7.21341 16.4852 6.30571 17.0681 5.32712 17.4517C4.34145 16.8325 3.92477 15.6649 4.3575 14.6477L4.3914 14.568C4.41262 14.5182 4.43384 14.4683 4.45501 14.4184C5.53764 14.0408 6.31676 13.0103 6.31676 11.8006C6.31676 10.2721 5.07323 9.02863 3.54475 9.02863C2.01628 9.02863 0.772753 10.2721 0.772753 11.8006C0.772753 12.5721 1.08986 13.2708 1.60025 13.7738C1.50775 13.971 1.41035 14.1715 1.31039 14.3768C0.843761 15.3352 0.314879 16.4215 0.114862 17.6279C-0.282397 20.0236 0.358409 21.9387 1.91921 23.0205C2.86635 23.6769 3.82813 23.935 4.79606 23.935C6.61863 23.935 8.46226 23.0193 10.2655 22.1237C11.5641 21.4787 12.907 20.8116 14.2334 20.4845C14.7269 20.3628 15.2348 20.2896 15.7725 20.212C16.8387 20.0582 17.9413 19.8992 18.9178 19.3336C20.0499 18.6779 20.8248 17.578 21.0439 16.316C21.232 15.2327 21.0057 14.1475 20.4536 13.2273C20.7109 12.8068 20.8595 12.3128 20.8595 11.7846Z" fill="white"/>
</g>
<defs>
<clipPath id="clip0_443_27578">
<rect width="24" height="24" fill="white"/>
</clipPath>
</defs>
</svg>
