<svg width="24" height="24" viewBox="0 0 24 24" fill="none" xmlns="http://www.w3.org/2000/svg">
<g clip-path="url(#clip0_443_27388)">
<path d="M11.9191 0.334027C11.7128 0.344419 11.5107 0.395569 11.3246 0.484474L3.21186 4.36082C3.00189 4.4611 2.81739 4.60701 2.67207 4.78771C2.52675 4.96842 2.42435 5.17927 2.37247 5.40461L0.371007 14.1119C0.324791 14.3125 0.319618 14.5203 0.355797 14.7229C0.391975 14.9255 0.468769 15.1189 0.581633 15.2916C0.609 15.3338 0.638433 15.3746 0.669826 15.414L6.28513 22.3958C6.43048 22.5765 6.615 22.7223 6.82498 22.8225C7.03496 22.9228 7.26501 22.9748 7.49805 22.9748L16.5031 22.9727C16.736 22.9728 16.966 22.921 17.176 22.8209C17.386 22.7209 17.5705 22.5752 17.716 22.3948L23.3292 15.4119C23.4747 15.2312 23.5771 15.0203 23.629 14.7948C23.681 14.5694 23.681 14.3352 23.6291 14.1098L21.6245 5.40254C21.5726 5.17719 21.4702 4.96634 21.3249 4.78564C21.1796 4.60493 20.9951 4.45902 20.7851 4.35875L12.6714 0.484474C12.4373 0.372638 12.1786 0.320906 11.9191 0.334027Z" fill="#326CE5"/>
<path d="M11.9994 3.29712C11.7312 3.29715 11.5138 3.53869 11.5138 3.83665C11.5138 3.84123 11.5148 3.8456 11.5149 3.85014C11.5145 3.89063 11.5125 3.9394 11.5138 3.97465C11.5202 4.1465 11.5577 4.27803 11.5802 4.43637C11.6211 4.77525 11.6553 5.05616 11.6342 5.31726C11.6136 5.41572 11.5411 5.50576 11.4765 5.56835L11.4651 5.77379C11.1737 5.79793 10.8803 5.84214 10.5873 5.90867C9.32644 6.19495 8.24088 6.84441 7.4144 7.7213C7.36077 7.68471 7.26695 7.61741 7.23905 7.59679C7.15236 7.6085 7.06473 7.63525 6.95061 7.56878C6.7333 7.4225 6.53539 7.22059 6.2959 6.97737C6.18617 6.86102 6.10671 6.75023 5.97633 6.63808C5.94673 6.61261 5.90154 6.57817 5.86843 6.55196C5.7665 6.4707 5.64628 6.42832 5.53018 6.42434C5.38091 6.41923 5.23721 6.47759 5.14317 6.59554C4.97599 6.80522 5.02951 7.12571 5.26249 7.31146C5.26485 7.31334 5.26737 7.31481 5.26975 7.31665C5.30177 7.3426 5.34097 7.37585 5.3704 7.39758C5.50874 7.49973 5.63512 7.55202 5.77297 7.63311C6.06339 7.81246 6.30415 7.96117 6.49512 8.14048C6.56969 8.21997 6.58272 8.36004 6.59265 8.42062L6.74828 8.55965C5.91513 9.81349 5.52954 11.3622 5.75741 12.9403L5.55405 12.9994C5.50045 13.0686 5.42471 13.1775 5.34549 13.21C5.09564 13.2887 4.81445 13.3176 4.47498 13.3532C4.3156 13.3665 4.17808 13.3586 4.00911 13.3906C3.97192 13.3976 3.9201 13.4111 3.87941 13.4206C3.878 13.4209 3.87668 13.4214 3.87526 13.4217C3.87305 13.4222 3.87013 13.4233 3.868 13.4238C3.58179 13.4929 3.39793 13.756 3.45712 14.0152C3.51633 14.2744 3.79589 14.4321 4.08381 14.37C4.08589 14.3695 4.08891 14.3695 4.09108 14.369C4.09433 14.3682 4.09719 14.3667 4.10042 14.3659C4.14055 14.3571 4.19085 14.3473 4.22596 14.3379C4.39208 14.2934 4.51239 14.228 4.66174 14.1708C4.98303 14.0556 5.24914 13.9593 5.50839 13.9218C5.61667 13.9133 5.73075 13.9886 5.7875 14.0204L5.99916 13.984C6.48624 15.4942 7.50701 16.7148 8.79955 17.4806L8.71136 17.6923C8.74315 17.7745 8.77821 17.8857 8.75453 17.9669C8.66028 18.2113 8.49884 18.4692 8.31501 18.7569C8.226 18.8897 8.1349 18.9928 8.05458 19.1449C8.03536 19.1813 8.01088 19.2372 7.99233 19.2756C7.86752 19.5427 7.95907 19.8502 8.1988 19.9656C8.44004 20.0818 8.73948 19.9593 8.86907 19.6917C8.86927 19.6913 8.86992 19.691 8.8701 19.6907C8.87024 19.6904 8.86997 19.6899 8.8701 19.6896C8.88856 19.6517 8.91471 19.6018 8.93028 19.5662C8.99908 19.4085 9.02197 19.2735 9.07035 19.121C9.19883 18.7983 9.26942 18.4597 9.44629 18.2487C9.49472 18.1909 9.57368 18.1687 9.65554 18.1468L9.76552 17.9476C10.8923 18.3801 12.1536 18.4961 13.4136 18.2101C13.701 18.1448 13.9785 18.0603 14.2468 17.959C14.2777 18.0138 14.3351 18.1192 14.3505 18.1457C14.4337 18.1728 14.5245 18.1868 14.5985 18.2962C14.7308 18.5222 14.8213 18.7897 14.9316 19.1127C14.98 19.2652 15.0039 19.4002 15.0727 19.5579C15.0884 19.5938 15.1144 19.6443 15.1329 19.6824C15.2622 19.9508 15.5626 20.0737 15.8042 19.9573C16.0439 19.8418 16.1355 19.5343 16.0106 19.2673C15.9921 19.2289 15.9666 19.173 15.9473 19.1366C15.867 18.9845 15.7759 18.8825 15.6869 18.7496C15.5031 18.462 15.3506 18.2231 15.2563 17.9787C15.2169 17.8526 15.263 17.7742 15.2937 17.6923C15.2753 17.6712 15.2359 17.5522 15.2127 17.4962C16.556 16.7031 17.5468 15.437 18.0121 13.9747C18.0749 13.9846 18.1841 14.0039 18.2196 14.011C18.2926 13.9629 18.3598 13.9 18.4915 13.9104C18.7507 13.9479 19.0168 14.0442 19.3381 14.1594C19.4875 14.2166 19.6078 14.283 19.7739 14.3275C19.809 14.3369 19.8593 14.3457 19.8994 14.3545C19.9027 14.3553 19.9055 14.3568 19.9088 14.3576C19.9109 14.3581 19.914 14.3581 19.916 14.3586C20.204 14.4206 20.4836 14.263 20.5427 14.0038C20.6018 13.7446 20.4181 13.4814 20.1318 13.4124C20.0902 13.4029 20.0312 13.3868 19.9907 13.3791C19.8218 13.3471 19.6842 13.355 19.5249 13.3418C19.1854 13.3062 18.9042 13.2773 18.6544 13.1986C18.5525 13.1591 18.48 13.0379 18.4448 12.988L18.2487 12.9309C18.3503 12.1953 18.3229 11.4298 18.147 10.6638C17.9694 9.89074 17.6556 9.18366 17.237 8.56069C17.2873 8.51496 17.3823 8.43084 17.4093 8.40609C17.4171 8.31897 17.4104 8.22762 17.5006 8.13114C17.6915 7.95183 17.9323 7.80314 18.2227 7.62377C18.3606 7.54267 18.488 7.4904 18.6263 7.38824C18.6576 7.36514 18.7003 7.32856 18.7332 7.30212C18.9661 7.11631 19.0198 6.79584 18.8525 6.5862C18.6853 6.37656 18.3612 6.35682 18.1283 6.54263C18.0951 6.56888 18.0502 6.60314 18.0204 6.62874C17.89 6.7409 17.8095 6.85168 17.6998 6.96803C17.4603 7.21127 17.2624 7.41419 17.0451 7.56048C16.9509 7.6153 16.813 7.59633 16.7504 7.59264L16.5657 7.72441C15.5126 6.62009 14.0787 5.91405 12.5348 5.7769C12.5305 5.7122 12.5248 5.59525 12.5234 5.56005C12.4602 5.49957 12.3838 5.44793 12.3646 5.31726C12.3435 5.05616 12.3788 4.77525 12.4196 4.43637C12.4422 4.27803 12.4796 4.1465 12.486 3.97465C12.4875 3.93558 12.4851 3.87889 12.485 3.83665C12.485 3.53869 12.2676 3.29709 11.9994 3.29712ZM11.3914 7.06348L11.2472 9.61071L11.2368 9.6159C11.2271 9.84377 11.0396 10.0257 10.8093 10.0257C10.715 10.0257 10.6279 9.99544 10.5572 9.94377L10.553 9.94584L8.46442 8.46523C9.10634 7.83402 9.9274 7.36756 10.8736 7.15271C11.0465 7.11347 11.2193 7.08435 11.3914 7.06348ZM12.6085 7.06348C13.7132 7.19936 14.7349 7.6996 15.5178 8.46627L13.4427 9.93754L13.4354 9.93443C13.2512 10.069 12.9917 10.0356 12.8481 9.85557C12.7893 9.78183 12.7585 9.69513 12.7548 9.6076L12.7527 9.60656L12.6085 7.06348ZM7.707 9.41668L9.61404 11.1224L9.61197 11.1328C9.7841 11.2825 9.80948 11.5421 9.66592 11.7222C9.60711 11.7959 9.5284 11.8454 9.44388 11.8685L9.44181 11.8768L6.9973 12.5823C6.87288 11.4446 7.14102 10.3387 7.707 9.41668ZM16.2783 9.41772C16.5617 9.87699 16.7762 10.3899 16.904 10.9461C17.0302 11.4955 17.0619 12.0439 17.0098 12.574L14.5529 11.8664L14.5508 11.856C14.3308 11.7959 14.1956 11.5721 14.2468 11.3476C14.2678 11.2556 14.3166 11.1778 14.3827 11.1204L14.3817 11.1152L16.2783 9.41772ZM11.6082 11.2542H12.3895L12.8751 11.8612L12.7008 12.6186L11.9994 12.9558L11.2959 12.6176L11.1216 11.8601L11.6082 11.2542ZM14.1129 13.3314C14.1461 13.3297 14.1792 13.3327 14.2115 13.3387L14.2156 13.3335L16.7442 13.761C16.3741 14.8006 15.666 15.7013 14.7199 16.304L13.7384 13.9332L13.7415 13.9291C13.6513 13.7195 13.7415 13.4739 13.949 13.374C14.0021 13.3484 14.0576 13.3342 14.1129 13.3314ZM9.86617 13.3418C10.0591 13.3445 10.2322 13.4784 10.277 13.6749C10.298 13.7668 10.2878 13.8579 10.2532 13.9384L10.2604 13.9477L9.28928 16.2947C8.3813 15.7121 7.65809 14.8397 7.27122 13.7693L9.77798 13.3439L9.78213 13.3491C9.81017 13.3439 9.83861 13.3414 9.86617 13.3418ZM11.9838 14.37C12.0511 14.3676 12.1193 14.3813 12.1841 14.4126C12.2691 14.4535 12.3347 14.5179 12.376 14.5952H12.3854L13.6211 16.828C13.4607 16.8818 13.2959 16.9277 13.1272 16.966C12.1822 17.1806 11.2401 17.1156 10.387 16.8249L11.6197 14.5962H11.6217C11.6957 14.4579 11.836 14.3755 11.9838 14.37Z" fill="white" stroke="white" stroke-width="0.25"/>
</g>
<defs>
<clipPath id="clip0_443_27388">
<rect width="24" height="24" fill="white"/>
</clipPath>
</defs>
</svg>
