<svg width="24" height="24" viewBox="0 0 24 24" fill="none" xmlns="http://www.w3.org/2000/svg">
<g clip-path="url(#clip0_443_27328)">
<path d="M13.6877 2.67466C12.681 1.48021 11.8134 0.266158 11.636 0.0140083C11.6173 -0.00466944 11.5893 -0.00466944 11.5706 0.0140083C11.3931 0.266158 10.5256 1.48021 9.51884 2.67466C0.872895 13.702 10.8804 21.1432 10.8804 21.1432L10.9645 21.1993C11.0392 22.348 11.226 24 11.226 24H11.9722C11.9722 24 12.1589 22.3564 12.2336 21.1993L12.3177 21.1339C12.327 21.1432 22.3346 13.7011 13.6886 2.67466H13.6877ZM11.5986 20.9751C11.5986 20.9751 11.1513 20.5922 11.0299 20.3961V20.3774L11.5706 8.37044C11.5706 8.33309 11.6266 8.33309 11.6266 8.37044L12.1673 20.3774V20.3961C12.0459 20.5922 11.5986 20.9751 11.5986 20.9751Z" fill="white"/>
</g>
<defs>
<clipPath id="clip0_443_27328">
<rect width="24" height="24" fill="white"/>
</clipPath>
</defs>
</svg>
