<svg width="24" height="24" viewBox="0 0 24 24" fill="none" xmlns="http://www.w3.org/2000/svg">
<g clip-path="url(#clip0_469_31685)">
<path fill-rule="evenodd" clip-rule="evenodd" d="M15.9544 10.0018H20.1347V10.7584H18.4763V14.7387H17.647V10.7584H15.9544V10.0018ZM23.6156 13.2569C23.6067 13.1732 23.5673 13.1075 23.4989 13.0606C23.4295 13.0133 23.3405 12.9898 23.2308 12.9898C23.1539 12.9898 23.0878 13.0013 23.0325 13.0238C22.9777 13.0464 22.935 13.0767 22.9055 13.1153C22.8764 13.1539 22.8619 13.198 22.8605 13.2472C22.8605 13.2886 22.8708 13.3244 22.8905 13.3543C22.9102 13.3846 22.9364 13.4104 22.9706 13.4311C23.0044 13.4522 23.0419 13.4692 23.0831 13.4835C23.1248 13.4977 23.1661 13.5096 23.2078 13.5193L23.3995 13.5653C23.4764 13.5827 23.5509 13.6062 23.6227 13.636C23.6939 13.6655 23.7586 13.7027 23.8153 13.7477C23.872 13.7928 23.917 13.847 23.9498 13.9104C23.9831 13.9743 24 14.0488 24 14.1343C24 14.2501 23.9695 14.3517 23.9086 14.4395C23.8472 14.5268 23.7591 14.5953 23.6433 14.6444C23.528 14.6936 23.3887 14.7184 23.2247 14.7184C23.0662 14.7184 22.928 14.6945 22.8117 14.6467C22.695 14.5994 22.6036 14.53 22.538 14.439C22.4723 14.3475 22.4372 14.2363 22.432 14.1053H22.7958C22.8009 14.1738 22.8234 14.2308 22.8619 14.2772C22.9003 14.3227 22.9509 14.3563 23.0128 14.3792C23.0752 14.4013 23.145 14.4128 23.2219 14.4128C23.302 14.4128 23.3728 14.4009 23.4342 14.3774C23.4947 14.354 23.5425 14.3218 23.5767 14.2791C23.6119 14.2377 23.6292 14.188 23.6297 14.1315C23.6292 14.08 23.6133 14.0373 23.5833 14.0033C23.5523 13.9697 23.5097 13.9417 23.4548 13.9187C23.4 13.8962 23.3358 13.8755 23.2627 13.8576L23.0302 13.8001C22.8623 13.7583 22.7292 13.6944 22.6317 13.6094C22.5342 13.5239 22.4859 13.4113 22.4859 13.2697C22.4859 13.1534 22.5183 13.0514 22.5844 12.9641C22.6495 12.8768 22.7386 12.8087 22.8516 12.7605C22.965 12.7118 23.093 12.6879 23.2359 12.6879C23.3808 12.6879 23.5078 12.7118 23.6175 12.7605C23.7267 12.8087 23.813 12.8758 23.8753 12.9618C23.9377 13.0477 23.97 13.1456 23.9719 13.2569H23.6156ZM21.7364 12.7145H22.1039V14.1021C22.1034 14.2299 22.0753 14.3388 22.02 14.4307C21.9647 14.5226 21.8873 14.5925 21.7889 14.6417C21.6905 14.6909 21.5752 14.7157 21.4444 14.7157C21.3248 14.7157 21.2175 14.6945 21.1219 14.6532C21.0263 14.6118 20.9503 14.5502 20.895 14.4689C20.8388 14.3871 20.8111 14.2859 20.8111 14.1641H21.1791C21.1795 14.2175 21.1922 14.2634 21.2156 14.302C21.2391 14.3406 21.2719 14.3701 21.3131 14.3907C21.3553 14.4114 21.4041 14.4215 21.4584 14.4215C21.5175 14.4215 21.5677 14.4096 21.6089 14.3852C21.6497 14.3613 21.6816 14.3255 21.7031 14.2777C21.7247 14.2303 21.7359 14.172 21.7364 14.1021V12.7145ZM20.3212 14.7097C20.2603 14.7097 20.2088 14.689 20.1656 14.6477C20.1225 14.6068 20.1009 14.5567 20.1014 14.4974C20.1009 14.4399 20.1225 14.3907 20.1656 14.3494C20.2088 14.308 20.2603 14.2873 20.3212 14.2873C20.3798 14.2873 20.4309 14.308 20.4741 14.3494C20.5177 14.3907 20.5397 14.4399 20.5402 14.4974C20.5397 14.5364 20.5298 14.5723 20.5092 14.6045C20.4886 14.6371 20.4623 14.6624 20.4291 14.6812C20.3963 14.7001 20.3606 14.7097 20.3212 14.7097ZM4.89937 14.7033L1.03641 10H0V14.7368H0.829219V11.0125L3.88641 14.7387H9.07922V13.9821H5.72812V12.732H8.42297V11.9754H5.72812V10.7584H9.07922V10.0018H4.89891V10.7584H4.89937V14.7033ZM12.2803 13.3874L11.7366 12.7246L10.0786 14.7442H11.1666L12.2803 13.3874ZM11.1666 10.0041H10.0814L13.9683 14.7405H15.0563L13.1128 12.3739L15.0534 10.0074L13.9683 10.0092L12.5695 11.7125L11.1666 10.0041Z" fill="white"/>
</g>
<defs>
<clipPath id="clip0_469_31685">
<rect width="24" height="4.74419" fill="white" transform="translate(0 10)"/>
</clipPath>
</defs>
</svg>
