<svg width="24" height="24" viewBox="0 0 24 24" fill="none" xmlns="http://www.w3.org/2000/svg">
<path d="M12 23C11.6894 23 11.3996 22.9192 11.1304 22.7777L8.37681 21.181C7.96273 20.9587 8.16977 20.8778 8.294 20.8374C8.853 20.6555 8.95652 20.6151 9.53623 20.2917C9.59835 20.2513 9.68116 20.2715 9.74327 20.3119L11.8551 21.5448C11.9379 21.5852 12.0414 21.5852 12.1035 21.5448L20.3644 16.876C20.4472 16.8356 20.4886 16.7547 20.4886 16.6537V7.33624C20.4886 7.23519 20.4472 7.15434 20.3644 7.11392L12.1035 2.46532C12.0207 2.4249 11.9172 2.4249 11.8551 2.46532L3.5942 7.11392C3.51139 7.15434 3.46998 7.2554 3.46998 7.33624V16.6537C3.46998 16.7345 3.51139 16.8356 3.5942 16.876L5.85093 18.1493C7.07246 18.7556 7.83851 18.0482 7.83851 17.3408V8.14469C7.83851 8.02343 7.94203 7.90216 8.08696 7.90216H9.14286C9.26708 7.90216 9.3913 8.00322 9.3913 8.14469V17.3408C9.3913 18.9375 8.50104 19.8672 6.94824 19.8672C6.47205 19.8672 6.09938 19.8672 5.04348 19.362L2.86956 18.1493C2.33126 17.8461 2 17.2802 2 16.6739V7.35645C2 6.75012 2.33126 6.1842 2.86956 5.88103L11.1304 1.21222C11.648 0.92926 12.352 0.92926 12.8696 1.21222L21.1304 5.88103C21.6687 6.1842 22 6.75012 22 7.35645V16.6739C22 17.2802 21.6687 17.8461 21.1304 18.1493L12.8696 22.8181C12.6004 22.9394 12.2899 23 12 23ZM14.5466 16.593C10.9234 16.593 10.1781 14.9761 10.1781 13.6017C10.1781 13.4805 10.2816 13.3592 10.4265 13.3592H11.5031C11.6273 13.3592 11.7308 13.4401 11.7308 13.5613C11.8965 14.6325 12.3727 15.158 14.5673 15.158C16.3064 15.158 17.0518 14.774 17.0518 13.8645C17.0518 13.339 16.8447 12.955 14.1325 12.6922C11.8758 12.4699 10.4679 11.9848 10.4679 10.2265C10.4679 8.58934 11.8758 7.6192 14.236 7.6192C16.8861 7.6192 18.1905 8.5085 18.3561 10.4488C18.3561 10.5094 18.3354 10.5701 18.294 10.6307C18.2526 10.6711 18.1905 10.7115 18.1284 10.7115H17.0518C16.9482 10.7115 16.8447 10.6307 16.824 10.5296C16.5756 9.41801 15.9337 9.0542 14.236 9.0542C12.3313 9.0542 12.1035 9.70096 12.1035 10.186C12.1035 10.7722 12.3727 10.9541 14.94 11.2774C17.4865 11.6008 18.6874 12.0657 18.6874 13.8039C18.6667 15.5825 17.176 16.593 14.5466 16.593Z" fill="#539E43"/>
</svg>
