<svg width="24" height="24" viewBox="0 0 24 24" fill="none" xmlns="http://www.w3.org/2000/svg">
<g clip-path="url(#clip0_443_27847)">
<g clip-path="url(#clip1_443_27847)">
<path d="M17.6134 17.328C17.7617 16.0923 17.7173 15.9111 18.6377 16.1112L18.8714 16.1318C19.5791 16.164 20.5049 16.0179 21.0488 15.7653C22.2196 15.222 22.9139 14.3149 21.7594 14.5533C19.1259 15.0965 18.9449 14.2048 18.9449 14.2048C21.7257 10.0789 22.8881 4.84132 21.8847 3.55928C19.148 0.0623351 14.4107 1.71596 14.3315 1.75889L14.3062 1.76355C13.7859 1.65559 13.2036 1.59109 12.5494 1.58051C11.3577 1.56093 10.4534 1.89293 9.76745 2.41321C9.76745 2.41321 1.31644 -1.0685 1.70959 6.79182C1.79321 8.46393 4.10639 19.4444 6.8653 16.1278C7.87366 14.915 8.84815 13.8896 8.84815 13.8896C9.33204 14.2111 9.91139 14.375 10.519 14.3161L10.566 14.2761C10.5513 14.4267 10.5577 14.574 10.5848 14.7483C9.87416 15.5424 10.083 15.6819 8.66202 15.9743C7.22442 16.2706 8.06901 16.7981 8.62029 16.936C9.28879 17.1032 10.8353 17.34 11.8805 15.8771L11.8389 16.044C12.1177 16.2671 12.0989 17.6472 12.1384 18.6332C12.178 19.6193 12.244 20.5395 12.445 21.0821C12.646 21.6245 12.8832 23.0219 14.7506 22.6217C16.3114 22.2872 17.5047 21.8059 17.6134 17.328Z" fill="black" stroke="black" stroke-width="1.95819"/>
<path d="M21.7597 14.5528C19.1259 15.096 18.9449 14.2043 18.9449 14.2043C21.7257 10.0781 22.8881 4.84044 21.885 3.55855C19.1482 0.0618172 14.4107 1.71555 14.3317 1.75848L14.3062 1.76304C13.7859 1.65502 13.2036 1.59067 12.5491 1.57999C11.3574 1.56046 10.4534 1.89241 9.76746 2.41259C9.76746 2.41259 1.31629 -1.06896 1.70934 6.7913C1.79296 8.46351 4.10609 19.444 6.8651 16.1274C7.87351 14.9146 8.84785 13.8892 8.84785 13.8892C9.33179 14.2107 9.91113 14.3746 10.5185 14.3157L10.5657 14.2757C10.551 14.4263 10.5577 14.5735 10.5846 14.7479C9.8738 15.542 10.0827 15.6814 8.66182 15.9739C7.22412 16.2702 8.0687 16.7977 8.62014 16.9356C9.28865 17.1028 10.8353 17.3396 11.8803 15.8767L11.8386 16.0436C12.1171 16.2667 12.3126 17.4945 12.2799 18.6075C12.2471 19.7206 12.2252 20.4848 12.4446 21.0817C12.6641 21.6785 12.8828 23.0215 14.7506 22.6213C16.3113 22.2868 17.1201 21.4201 17.2326 19.9743C17.3125 18.9465 17.4932 19.0984 17.5046 18.1795L17.6495 17.7445C17.8166 16.3512 17.676 15.9017 18.6376 16.1107L18.8713 16.1313C19.579 16.1635 20.5053 16.0174 21.0489 15.7647C22.2195 15.2215 22.9138 14.3144 21.7596 14.5528H21.7597Z" fill="#336791"/>
<path d="M11.9932 15.3516C11.9206 17.9441 12.0114 20.5548 12.2651 21.1892C12.5189 21.8237 13.0621 23.0578 14.9301 22.6576C16.4907 22.323 17.0585 21.6756 17.3049 20.2465C17.4864 19.195 17.8362 16.2749 17.8811 15.6766" stroke="white" stroke-width="0.652906" stroke-linecap="round" stroke-linejoin="round"/>
<path d="M9.75432 2.35499C9.75432 2.35499 1.29738 -1.10148 1.69054 6.75878C1.77416 8.431 4.08744 19.4118 6.8464 16.0951C7.85461 14.8821 8.76642 13.9308 8.76642 13.9308" stroke="white" stroke-width="0.652906" stroke-linecap="round" stroke-linejoin="round"/>
<path d="M14.3224 1.72405C14.0296 1.81583 19.0266 -0.102676 21.8665 3.52606C22.8696 4.80799 21.7072 10.0456 18.9264 14.172" stroke="white" stroke-width="0.652906" stroke-linecap="round" stroke-linejoin="round"/>
<path d="M18.9264 14.1718C18.9264 14.1718 19.1076 15.0638 21.7414 14.5201C22.8954 14.2818 22.2009 15.189 21.0305 15.7325C20.07 16.1783 17.9166 16.2925 17.8814 15.6765C17.7909 14.0872 19.0147 14.57 18.9264 14.1718ZM18.9264 14.1718C18.8466 13.8131 18.2993 13.4611 17.9372 12.5834C17.6211 11.8172 13.6022 5.94178 19.0517 6.81438C19.2514 6.77307 17.6304 1.63082 12.5304 1.5472C7.43149 1.46359 7.59878 7.81772 7.59878 7.81772" stroke="white" stroke-width="0.652906" stroke-linecap="round" stroke-linejoin="bevel"/>
<path d="M10.5658 14.7155C9.85491 15.5096 10.064 15.649 8.64303 15.9416C7.20533 16.2379 8.05003 16.7653 8.6013 16.9031C9.26981 17.0704 10.8164 17.3072 11.8614 15.844C12.1797 15.3985 11.8595 14.6876 11.4224 14.5064C11.2112 14.4189 10.9288 14.3092 10.5658 14.7155Z" stroke="white" stroke-width="0.652906" stroke-linecap="round" stroke-linejoin="round"/>
<path d="M10.5195 14.7018C10.4478 14.235 10.6729 13.6794 10.914 13.0294C11.2765 12.0542 12.1127 11.0788 11.4437 7.98529C10.9451 5.68001 7.60086 7.50553 7.59877 7.81811C7.59672 8.13058 7.75003 9.40247 7.5429 10.8836C7.27263 12.8163 8.77269 14.4508 10.5 14.2836" stroke="white" stroke-width="0.652906" stroke-linecap="round" stroke-linejoin="round"/>
<path d="M9.72366 7.77127C9.70858 7.87803 9.91912 8.16291 10.1936 8.20097C10.4677 8.23919 10.7022 8.01657 10.7171 7.90991C10.732 7.80316 10.5217 7.68556 10.2471 7.64734C9.97289 7.60906 9.73822 7.66477 9.72372 7.77127H9.72366Z" fill="white" stroke="white" stroke-width="0.21781"/>
<path d="M18.0707 7.55347C18.0856 7.66023 17.8753 7.94511 17.6007 7.98318C17.3265 8.0214 17.0919 7.79877 17.0769 7.69212C17.0624 7.58536 17.2727 7.46776 17.547 7.42954C17.8213 7.39132 18.0558 7.44698 18.0707 7.55353V7.55347Z" fill="white" stroke="white" stroke-width="0.108905"/>
<path d="M19.0516 6.81445C19.0968 7.65187 18.8712 8.22226 18.8428 9.11371C18.8007 10.4095 19.4606 11.8926 18.4663 13.3775" stroke="white" stroke-width="0.652906" stroke-linecap="round" stroke-linejoin="round"/>
</g>
</g>
<defs>
<clipPath id="clip0_443_27847">
<rect width="24" height="24" fill="white"/>
</clipPath>
<clipPath id="clip1_443_27847">
<rect width="24" height="24" fill="white"/>
</clipPath>
</defs>
</svg>
