<svg width="24" height="24" viewBox="0 0 24 24" fill="none" xmlns="http://www.w3.org/2000/svg">
<g clip-path="url(#clip0_443_27471)">
<path d="M11.7287 0.000233331C10.8119 0.00101912 9.89687 0.0788809 8.99317 0.232996C6.56944 0.660084 6.12954 1.55697 6.12954 3.2098V5.39222H11.8547V6.11827H3.98129C2.31778 6.11827 0.85928 7.11979 0.404431 9.02247C-0.125158 11.2028 -0.144377 12.563 0.404431 14.8415C0.810164 16.5371 1.78392 17.7436 3.44743 17.7436H5.42698V15.1277C5.44617 14.1889 5.82838 13.294 6.49335 12.6311C7.15832 11.9681 8.05431 11.5886 8.99317 11.5722H14.7119C15.4761 11.566 16.2067 11.257 16.7435 10.713C17.2803 10.169 17.5795 9.43436 17.5755 8.67012V3.2098C17.5755 1.65733 16.2665 0.491384 14.7119 0.232996C13.7256 0.0730089 12.7278 -0.00484593 11.7287 0.000233331V0.000233331ZM8.63014 1.75556C8.84681 1.7509 9.05996 1.81086 9.24243 1.9278C9.42489 2.04473 9.5684 2.21335 9.65467 2.41217C9.74093 2.61098 9.76604 2.83097 9.7268 3.04411C9.68756 3.25725 9.58574 3.45387 9.43433 3.60892C9.28291 3.76397 9.08876 3.87042 8.87661 3.91471C8.66446 3.95899 8.44393 3.9391 8.24313 3.85758C8.04233 3.77605 7.87036 3.63658 7.74912 3.45694C7.62789 3.2773 7.5629 3.06563 7.56242 2.84891C7.56069 2.56283 7.67182 2.2876 7.8717 2.08292C8.07158 1.87824 8.3441 1.76062 8.63014 1.75556Z" fill="url(#paint0_linear_443_27471)"/>
<path d="M18.2883 6.11816V8.67001C18.2883 10.641 16.6163 12.3003 14.7115 12.3003H8.99277C8.23135 12.3153 7.5059 12.627 6.97099 13.1691C6.43608 13.7112 6.13401 14.4408 6.12915 15.2023V20.6541C6.12915 22.2044 7.47875 23.1184 8.99277 23.5626C10.8544 24.1458 12.8499 24.1458 14.7115 23.5626C16.1529 23.1462 17.5751 22.3048 17.5751 20.6541V18.4717H11.8543V17.7435H20.4366C22.1001 17.7435 22.7215 16.584 23.3002 14.8414C23.8981 13.0477 23.8725 11.3222 23.3002 9.02236C22.8881 7.36526 22.1022 6.11816 20.4366 6.11816H18.2883ZM15.0724 19.9259C15.2893 19.9212 15.5027 19.9814 15.6853 20.0986C15.8679 20.2158 16.0114 20.3848 16.0975 20.584C16.1836 20.7832 16.2083 21.0035 16.1686 21.2168C16.1288 21.4301 16.0264 21.6268 15.8743 21.7816C15.7222 21.9364 15.5275 22.0423 15.3149 22.0859C15.1023 22.1294 14.8816 22.1086 14.6809 22.0261C14.4802 21.9436 14.3087 21.8031 14.1882 21.6226C14.0678 21.4421 14.0039 21.2298 14.0047 21.0129C14.0029 20.7274 14.1143 20.4528 14.3143 20.2492C14.5144 20.0455 14.7869 19.9293 15.0724 19.9259V19.9259Z" fill="url(#paint1_linear_443_27471)"/>
</g>
<defs>
<linearGradient id="paint0_linear_443_27471" x1="-0.63681" y1="0.760237" x2="12.5961" y2="11.9448" gradientUnits="userSpaceOnUse">
<stop stop-color="#5A9FD4"/>
<stop offset="1" stop-color="#306998"/>
</linearGradient>
<linearGradient id="paint1_linear_443_27471" x1="17.4392" y1="19.0863" x2="12.6732" y2="12.4615" gradientUnits="userSpaceOnUse">
<stop stop-color="#FFD43B"/>
<stop offset="1" stop-color="#FFE873"/>
</linearGradient>
<clipPath id="clip0_443_27471">
<rect width="24" height="24" fill="white"/>
</clipPath>
</defs>
</svg>
