<svg width="24" height="24" viewBox="0 0 24 24" fill="none" xmlns="http://www.w3.org/2000/svg">
<path d="M24 11.6841C24 10.095 22.009 8.58892 18.9564 7.65497C19.6608 4.54508 19.3477 2.07086 17.9682 1.27872C17.634 1.09121 17.2556 0.996653 16.8724 1.00489V2.09531C17.0661 2.08931 17.2581 2.13308 17.4301 2.22244C18.0954 2.60384 18.384 4.0561 18.159 5.924C18.1052 6.38363 18.0171 6.86772 17.9095 7.36159C16.887 7.11525 15.8492 6.93719 14.8031 6.8286C14.1799 5.96929 13.5001 5.15252 12.768 4.38372C14.3628 2.90212 15.8598 2.09042 16.8773 2.09042V1C15.532 1 13.7709 1.95839 11.9902 3.62092C10.2095 1.96817 8.44843 1.01956 7.10314 1.01956V2.10998C8.11578 2.10998 9.61761 2.91679 11.2124 4.38861C10.4839 5.15477 9.80882 5.97002 9.19201 6.8286C8.14374 6.93596 7.10416 7.11568 6.08072 7.36648C5.9682 6.8775 5.88504 6.40319 5.82633 5.94844C5.59641 4.08055 5.88015 2.62829 6.54056 2.242C6.68732 2.15399 6.87811 2.11487 7.10314 2.11487V1.02445C6.71685 1.01624 6.33532 1.11074 5.99755 1.29828C4.62291 2.09042 4.31472 4.55975 5.02405 7.65986C1.98125 8.5987 0 10.0999 0 11.6841C0 13.2684 1.99103 14.7794 5.04362 15.7133C4.33918 18.8232 4.65226 21.2974 6.0318 22.0896C6.34978 22.2754 6.72157 22.3634 7.13249 22.3634C8.47778 22.3634 10.2389 21.405 12.0196 19.7425C13.8002 21.3952 15.5614 22.3438 16.9066 22.3438C17.2929 22.352 17.6745 22.2575 18.0122 22.07C19.3869 21.2779 19.6951 18.8085 18.9857 15.7084C22.0188 14.7745 24 13.2684 24 11.6841ZM17.6307 8.42267C17.4497 9.05345 17.2246 9.70379 16.9702 10.3541C16.7697 9.96294 16.5593 9.57176 16.3294 9.18058C16.0995 8.7894 15.8647 8.408 15.625 8.03638C16.3196 8.13906 16.9898 8.26619 17.6307 8.42267ZM15.3901 13.6303C15.0086 14.2904 14.6172 14.9163 14.2112 15.4982C13.4823 15.5617 12.7436 15.596 12 15.596C11.2564 15.596 10.5226 15.5617 9.79861 15.5031C9.39258 14.9212 8.99796 14.3018 8.61476 13.6449C8.24297 13.006 7.90379 12.3573 7.59723 11.6988C7.90053 11.0436 8.24297 10.3884 8.60987 9.74779C8.99144 9.08768 9.3828 8.46179 9.78883 7.8799C10.5177 7.81634 11.2564 7.78211 12 7.78211C12.7436 7.78211 13.4774 7.81634 14.2014 7.87501C14.6074 8.4569 15.002 9.07627 15.3852 9.73313C15.757 10.3737 16.0962 11.0224 16.4028 11.6793C16.0946 12.3345 15.757 12.9897 15.3901 13.6303ZM16.9702 12.9946C17.2344 13.6498 17.4594 14.3051 17.6453 14.9407C17.0045 15.0972 16.3294 15.2292 15.6298 15.3319C15.8695 14.9554 16.1093 14.5691 16.3343 14.173C16.5593 13.777 16.7697 13.3858 16.9702 12.9946ZM12.0098 18.212C11.5299 17.7141 11.076 17.1918 10.6498 16.6473C11.0901 16.6668 11.5402 16.6815 11.9951 16.6815C12.4501 16.6815 12.9099 16.6717 13.3551 16.6473C12.9352 17.1927 12.4861 17.715 12.0098 18.212V18.212ZM8.37016 15.3319C7.6755 15.2292 7.0053 15.1021 6.36445 14.9456C6.54545 14.3148 6.77049 13.6645 7.02487 13.0142C7.22544 13.4053 7.43579 13.7965 7.66572 14.1877C7.89564 14.5789 8.13045 14.9603 8.37016 15.3319V15.3319ZM11.9853 5.1563C12.4652 5.65422 12.9191 6.17649 13.3453 6.72103C12.905 6.70147 12.455 6.6868 12 6.6868C11.545 6.6868 11.0852 6.69658 10.64 6.72103C11.0599 6.17559 11.509 5.65325 11.9853 5.1563V5.1563ZM8.36527 8.03638C8.12556 8.41289 7.88585 8.79918 7.66082 9.19525C7.43579 9.59132 7.22544 9.97761 7.02487 10.3688C6.7607 9.71357 6.53567 9.05834 6.34978 8.42267C6.99062 8.27108 7.66572 8.13906 8.36527 8.03638ZM3.93804 14.1584C2.20628 13.42 1.08602 12.4518 1.08602 11.6841C1.08602 10.9164 2.20628 9.94338 3.93804 9.20992C4.35875 9.029 4.81859 8.86764 5.29311 8.71605C5.59239 9.73236 5.96013 10.7273 6.3938 11.6939C5.9648 12.6558 5.60195 13.6458 5.30779 14.6571C4.82348 14.5055 4.36364 14.3393 3.93804 14.1584ZM6.56991 21.1458C5.90461 20.7644 5.61598 19.3122 5.84101 17.4443C5.89482 16.9846 5.98288 16.5006 6.0905 16.0067C7.11299 16.253 8.15075 16.4311 9.1969 16.5397C9.82008 17.399 10.4999 18.2158 11.232 18.9846C9.63718 20.4662 8.14024 21.2779 7.12271 21.2779C6.93038 21.28 6.74049 21.2347 6.56991 21.1458ZM18.1737 17.4198C18.4036 19.2877 18.1199 20.74 17.4594 21.1263C17.3127 21.2143 17.1219 21.2534 16.8969 21.2534C15.8842 21.2534 14.3824 20.4466 12.7876 18.9748C13.5161 18.2086 14.1912 17.3934 14.808 16.5348C15.8563 16.4274 16.8958 16.2477 17.9193 15.9969C18.0291 16.4664 18.114 16.9414 18.1737 17.4198V17.4198ZM20.0571 14.1584C19.6364 14.3393 19.1765 14.5006 18.702 14.6522C18.4027 13.6359 18.035 12.641 17.6013 11.6744C18.0303 10.7125 18.3932 9.72243 18.6873 8.71116C19.1716 8.86275 19.6315 9.029 20.062 9.20992C21.7937 9.94827 22.914 10.9164 22.914 11.6841C22.914 12.4518 21.7888 13.4249 20.0571 14.1584Z" fill="#61DAFB"/>
<path d="M11.9956 13.9194C13.2303 13.9194 14.2313 12.919 14.2313 11.6848C14.2313 10.4507 13.2303 9.4502 11.9956 9.4502C10.7609 9.4502 9.76001 10.4507 9.76001 11.6848C9.76001 12.919 10.7609 13.9194 11.9956 13.9194Z" fill="#61DAFB"/>
</svg>
