<svg width="24" height="24" viewBox="0 0 24 24" fill="none" xmlns="http://www.w3.org/2000/svg">
<g clip-path="url(#clip0_443_27768)">
<path fill-rule="evenodd" clip-rule="evenodd" d="M20.0775 3.417L20.5834 4.09678C20.7162 4.27618 20.683 4.53334 20.5072 4.6689L19.97 5.08553C20.0677 5.35065 20.1302 5.63372 20.1556 5.92278L20.767 6.0085C20.9857 6.0384 21.1381 6.24571 21.1088 6.46898L20.9955 7.3162C20.9662 7.53947 20.7631 7.69695 20.5443 7.66506L19.8763 7.57137C19.7571 7.8365 19.6048 8.07969 19.4251 8.29698L19.8001 8.79934C19.9329 8.97875 19.8978 9.2359 19.722 9.37146L19.0559 9.88777C18.8801 10.0233 18.6282 9.98744 18.4954 9.81002L18.0871 9.26182C17.8254 9.36149 17.55 9.42528 17.2648 9.45119L17.1808 10.0751C17.1515 10.2984 16.9484 10.4539 16.7296 10.424L15.8995 10.3084C15.6807 10.2785 15.5284 10.0712 15.5577 9.84789L15.6495 9.16613C15.3917 9.04453 15.1514 8.88904 14.9385 8.70763L14.4463 9.08839C14.2705 9.22394 14.0185 9.19005 13.8857 9.01064L13.3798 8.33087C13.247 8.15146 13.2802 7.89431 13.456 7.75875L13.9931 7.34212C13.8955 7.07499 13.833 6.79392 13.8076 6.50487L13.1962 6.41914C12.9775 6.38924 12.8231 6.18193 12.8544 5.95866L12.9677 5.11144C12.9989 4.88817 13.2001 4.73268 13.4189 4.76258L14.0869 4.85628C14.206 4.59314 14.3584 4.34795 14.5361 4.13066L14.1631 3.62831C14.0302 3.45089 14.0635 3.19373 14.2392 3.05818L14.9053 2.54188C15.0811 2.40632 15.3331 2.44021 15.4659 2.61962L15.8741 3.16782C16.1339 3.06815 16.4112 3.00436 16.6945 2.97844L16.7785 2.35449C16.8078 2.13122 17.0109 1.97374 17.2297 2.00364L18.0598 2.11926C18.2785 2.14917 18.4328 2.35648 18.4016 2.57975L18.3098 3.26151C18.5696 3.38311 18.8079 3.5386 19.0227 3.722L19.5149 3.34126C19.6907 3.2037 19.9427 3.23759 20.0775 3.417ZM5.79543 15.3797V12.0905H7.45563C7.76433 12.0905 7.99863 12.1164 8.16083 12.1723C8.32293 12.2261 8.45573 12.3257 8.55343 12.4713C8.65303 12.6188 8.70383 12.7962 8.70383 13.0055C8.70383 13.1869 8.66473 13.3464 8.58853 13.478C8.51233 13.6115 8.40693 13.7192 8.27413 13.8009C8.19013 13.8528 8.07293 13.8966 7.92443 13.9305C8.04363 13.9723 8.12953 14.0102 8.18223 14.052C8.21943 14.08 8.27213 14.1379 8.34053 14.2255C8.40883 14.3133 8.45573 14.383 8.47913 14.4308L8.96353 15.3817H7.83853L7.30723 14.379C7.23883 14.2495 7.18023 14.1638 7.12753 14.1258C7.05523 14.076 6.97323 14.0501 6.88333 14.0501H6.79543V15.3817H5.79543V15.3797ZM9.30733 21.1069H7.44783L7.18023 22H5.50443L7.50253 16.5798H9.29953L11.2899 22H9.57103L9.30733 21.1069ZM8.95963 19.9328L8.37953 17.9832L7.79753 19.9328H8.95963ZM11.6766 16.5798H14.4072C15.003 16.5798 15.4483 16.7234 15.7432 17.0123C16.0382 17.3014 16.1866 17.7141 16.1866 18.2463C16.1866 18.7945 16.0245 19.2232 15.7022 19.5321C15.3799 19.8411 14.8858 19.9946 14.2236 19.9946H13.3232V22H11.6766V16.5798ZM13.3232 18.8962H13.7275C14.0459 18.8962 14.2705 18.8404 14.3994 18.7267C14.5283 18.6151 14.5928 18.4696 14.5928 18.2961C14.5928 18.1267 14.5361 17.9812 14.4248 17.8636C14.3135 17.7459 14.1025 17.6861 13.7939 17.6861H13.3232V18.8962ZM16.8507 16.5798H18.4973V22H16.8507V16.5798ZM6.79543 13.4261H7.21543C7.26033 13.4261 7.34823 13.4102 7.47913 13.3803C7.54553 13.3663 7.60023 13.3324 7.64123 13.2766C7.68423 13.2208 7.70373 13.157 7.70373 13.0853C7.70373 12.9796 7.67053 12.8959 7.60413 12.8401C7.53773 12.7822 7.41463 12.7544 7.23303 12.7544H6.79543V13.4261ZM9.15503 12.0905H11.8211V12.7922H10.155V13.3165H11.7V13.9863H10.155V14.6342H11.87V15.3778H9.15503V12.0905ZM12.1063 14.2913L13.0517 14.2315C13.0712 14.389 13.1142 14.5066 13.1767 14.5884C13.2802 14.7199 13.4267 14.7877 13.6162 14.7877C13.7568 14.7877 13.8681 14.7538 13.9443 14.686C14.0205 14.6183 14.0595 14.5385 14.0595 14.4488C14.0595 14.3631 14.0224 14.2873 13.9502 14.2196C13.8779 14.1517 13.708 14.09 13.4404 14.0282C13.0048 13.9285 12.6942 13.7949 12.5067 13.6295C12.3192 13.464 12.2255 13.2528 12.2255 12.9955C12.2255 12.8261 12.2743 12.6666 12.37 12.5171C12.4657 12.3677 12.6102 12.2481 12.8036 12.1623C12.997 12.0766 13.2607 12.0347 13.5966 12.0347C14.0088 12.0347 14.3213 12.1125 14.5381 12.2699C14.7529 12.4274 14.8819 12.6746 14.9229 13.0174L13.9873 13.0753C13.9619 12.9258 13.9091 12.8161 13.831 12.7504C13.7509 12.6826 13.6396 12.6487 13.5009 12.6487C13.3857 12.6487 13.2978 12.6746 13.2392 12.7245C13.1806 12.7743 13.1513 12.8361 13.1513 12.9079C13.1513 12.9597 13.1767 13.0055 13.2236 13.0494C13.2704 13.0912 13.3798 13.1331 13.5556 13.171C13.9912 13.2666 14.3037 13.3644 14.4912 13.462C14.6787 13.5597 14.8174 13.6813 14.9014 13.8268C14.9873 13.9704 15.0303 14.1338 15.0303 14.3133C15.0303 14.5245 14.9737 14.7179 14.8584 14.8953C14.7451 15.0728 14.585 15.2083 14.3799 15.3C14.1748 15.3917 13.917 15.4376 13.6044 15.4376C13.0575 15.4376 12.6767 15.3299 12.4657 15.1146C12.2548 14.8953 12.1356 14.6222 12.1063 14.2913ZM15.1748 12.0905H18.2043V12.9039H17.1886V15.3797H16.1925V12.9039H15.1748V12.0905ZM11.8231 4.28415C11.4656 4.25625 11.1043 4.26023 10.7469 4.29612C9.64723 4.40377 8.57883 4.81242 7.69593 5.51212C6.67433 6.31948 5.89893 7.52751 5.60013 9.12826L5.50633 9.62861L5.01803 9.71633C4.53953 9.80204 4.11173 9.91965 3.73673 10.0692C3.37343 10.2127 3.04913 10.3901 2.76593 10.5994C2.53933 10.7669 2.34403 10.9543 2.17803 11.1576C1.66433 11.7855 1.42603 12.573 1.43193 13.3703C1.43773 14.1797 1.69553 14.9969 2.17213 15.6688C2.34993 15.918 2.55503 16.1472 2.78943 16.3465C3.02773 16.5479 3.29523 16.7153 3.59603 16.8409C3.76603 16.9127 3.94763 16.9726 4.13713 17.0203V18.5135C3.74643 18.4416 3.38703 18.3341 3.05113 18.1925C2.60773 18.0051 2.21513 17.7639 1.86943 17.4689C1.54123 17.1898 1.25413 16.8729 1.01003 16.528C0.35953 15.611 0.00792971 14.4906 0.000129714 13.3743C-0.00767029 12.246 0.336129 11.1237 1.07833 10.2147C1.31863 9.91965 1.60183 9.64855 1.92603 9.40933C2.30303 9.13024 2.73473 8.89502 3.22303 8.70165C3.55893 8.56809 3.91833 8.45646 4.29733 8.36676C4.72703 6.62447 5.64303 5.28288 6.82083 4.35194C7.92253 3.4808 9.24873 2.97246 10.614 2.8389C11.3309 2.76913 12.0575 2.80103 12.7685 2.93658C12.7528 3.00236 12.7392 3.06815 12.7313 3.13593L12.7294 3.14789C12.7157 3.26151 12.7099 3.37514 12.7157 3.49077C12.5653 3.55056 12.4247 3.6323 12.2977 3.73197L12.2919 3.73596C12.1024 3.88148 11.9422 4.06887 11.8231 4.28415ZM22.1577 8.11159C22.2671 8.21326 22.3725 8.31891 22.4761 8.43254C22.685 8.66179 22.8823 8.92094 23.0679 9.20999C23.6929 10.1908 24.0133 11.5005 23.9996 12.7822C23.9859 14.0401 23.6539 15.292 22.9741 16.213C22.5307 16.8131 21.9624 17.3034 21.2807 17.6921C20.8138 17.9593 20.2884 18.1805 19.7161 18.36V16.815C20.0247 16.6974 20.3119 16.5658 20.5756 16.4163C21.0893 16.1233 21.5092 15.7664 21.8237 15.3379C22.312 14.6741 22.5522 13.7351 22.562 12.7722C22.5737 11.7616 22.3315 10.7469 21.8608 10.0094C21.726 9.79606 21.5776 9.60469 21.4213 9.43326C21.3608 9.36747 21.3002 9.30567 21.2377 9.24587C21.2475 9.14619 21.2514 9.04453 21.2455 8.94287C21.3959 8.88306 21.5365 8.80133 21.6635 8.70165L21.6694 8.69766C21.8705 8.54018 22.0385 8.34084 22.1577 8.11159ZM17.2043 4.55128C18.1047 4.67687 18.7336 5.52408 18.6106 6.44307C18.4875 7.36205 17.6574 8.00594 16.757 7.88035C15.8565 7.75477 15.2256 6.90754 15.3506 5.98856C15.4756 5.06958 16.3038 4.42569 17.2043 4.55128Z" fill="#01B5E6"/>
</g>
<defs>
<clipPath id="clip0_443_27768">
<rect width="24" height="20" fill="white" transform="translate(0 2)"/>
</clipPath>
</defs>
</svg>
