<svg width="24" height="24" viewBox="0 0 24 24" fill="none" xmlns="http://www.w3.org/2000/svg">
<path d="M10.731 22.9859C8.7322 22.8375 6.75661 22.3191 5.545 21.6252C4.85486 21.2299 4.32908 20.7442 4.12276 20.3113L4 20.0537V11.974V3.89438L4.09714 3.69118C4.53122 2.78322 5.91658 1.96468 7.85047 1.47355C8.50694 1.30682 9.45464 1.14078 10.2278 1.05706C11.0173 0.971542 13.1098 0.984552 13.8974 1.08C15.9904 1.33334 17.7715 1.90052 18.8691 2.66326C19.2924 2.95739 19.7267 3.42805 19.8738 3.75201L20 4.02977L19.9892 12.085L19.9784 20.1402L19.8771 20.3522C19.8214 20.4687 19.6532 20.6981 19.5033 20.8618C18.5906 21.8586 16.6329 22.5959 14.0651 22.9101C13.5418 22.9741 11.268 23.0258 10.731 22.9859ZM14.4146 16.0627C14.4069 16.0421 14.1081 15.7678 13.7506 15.4533C13.3931 15.1387 13.0851 14.8665 13.0663 14.8485C13.0475 14.8304 13.1135 14.7664 13.2131 14.7063C13.3127 14.6462 13.5034 14.4789 13.637 14.3346C14.0276 13.9126 14.2119 13.3913 14.2119 12.7085C14.2119 12.0363 14.0131 11.494 13.615 11.08C13.2137 10.6627 12.753 10.4834 12.0821 10.4834C11.048 10.4834 10.2537 11.1051 10.0002 12.113C9.91302 12.4597 9.91348 13.1602 10.0011 13.4676C10.2297 14.2694 10.8524 14.8518 11.6273 14.9886C11.8895 15.0348 11.925 15.0548 12.1038 15.2562C12.21 15.3758 12.4281 15.6147 12.5883 15.787L12.8796 16.1002H13.6541C14.0801 16.1002 14.4223 16.0834 14.4146 16.0627ZM11.7586 13.8286C11.5722 13.7285 11.5017 13.6508 11.3954 13.4281C11.3132 13.2561 11.2992 13.1583 11.2983 12.7517C11.2974 12.3387 11.3101 12.2494 11.3959 12.0701C11.5361 11.7766 11.7295 11.6376 12.0285 11.6153C12.4448 11.5842 12.685 11.7947 12.811 12.3005C12.9654 12.9206 12.7956 13.58 12.4251 13.7988C12.2308 13.9136 11.9409 13.9266 11.7586 13.8286ZM8.32578 14.9798C9.13778 14.8211 9.59872 14.3346 9.59872 13.6362C9.59872 13.0167 9.30113 12.6556 8.47867 12.2774C8.00785 12.0608 7.83731 11.9249 7.83731 11.7661C7.83731 11.6345 7.99915 11.4902 8.18756 11.454C8.37151 11.4186 8.85941 11.5059 9.14752 11.6258L9.38903 11.7263V11.1756V10.6248L9.12691 10.5649C8.96492 10.5279 8.62451 10.5057 8.23572 10.5068C7.68501 10.5068 7.57718 10.5206 7.36993 10.6054C6.76456 10.853 6.4773 11.2748 6.48189 11.9092C6.48619 12.5032 6.79032 12.8736 7.54722 13.2069C7.99382 13.4036 8.17283 13.5533 8.17283 13.7303C8.17283 14.1063 7.56466 14.1526 6.92077 13.8256C6.74443 13.736 6.586 13.6554 6.5687 13.6465C6.5514 13.6376 6.53725 13.8948 6.53725 14.2182C6.53725 14.8035 6.53785 14.8064 6.64071 14.8467C7.02807 14.9984 7.88421 15.066 8.32578 14.9798ZM17.6089 14.4368V13.9399H16.875H16.141V12.2332V10.5266H15.491H14.841V12.7301V14.9337H16.2249H17.6089V14.4368ZM13.0796 5.72954C14.3713 5.63723 15.3396 5.46296 16.1917 5.16945C17.0405 4.87704 17.542 4.52323 17.6542 4.13754C17.6974 3.98891 17.6943 3.93254 17.6339 3.76958C17.3631 3.03903 15.8502 2.47774 13.5385 2.25016C12.5497 2.1528 10.7513 2.18436 9.80846 2.31558C8.36981 2.51584 7.20226 2.88782 6.68313 3.31131C5.63297 4.16805 6.74352 5.11035 9.32613 5.55387C10.4459 5.74618 11.8967 5.81408 13.0796 5.72954Z" fill="#00BCF2"/>
</svg>
