<svg width="24" height="24" viewBox="0 0 24 24" fill="none" xmlns="http://www.w3.org/2000/svg">
<g clip-path="url(#clip0_443_27464)">
<mask id="mask0_443_27464" style="mask-type:luminance" maskUnits="userSpaceOnUse" x="1" y="5" width="22" height="14">
<path d="M1 5H23V18.7455H1V5Z" fill="white"/>
</mask>
<g mask="url(#mask0_443_27464)">
<path fill-rule="evenodd" clip-rule="evenodd" d="M12 5C9.06667 5 7.23333 6.52727 6.5 9.58182C7.6 8.05455 8.88333 7.48182 10.35 7.86364C11.1868 8.08127 11.7849 8.71382 12.4469 9.41339C13.5253 10.5533 14.7736 11.8727 17.5 11.8727C20.4333 11.8727 22.2667 10.3455 23 7.29091C21.9 8.81818 20.6167 9.39091 19.15 9.00909C18.3132 8.79145 17.7151 8.15891 17.0531 7.45933C15.9747 6.31939 14.7264 5 12 5ZM6.5 11.8727C3.56667 11.8727 1.73333 13.4 1 16.4545C2.1 14.9273 3.38333 14.3545 4.85 14.7364C5.68681 14.9544 6.28489 15.5865 6.94693 16.2861C8.02533 17.4261 9.27363 18.7455 12 18.7455C14.9333 18.7455 16.7667 17.2182 17.5 14.1636C16.4 15.6909 15.1167 16.2636 13.65 15.8818C12.8132 15.6642 12.2151 15.0316 11.5531 14.3321C10.4747 13.1921 9.22637 11.8727 6.5 11.8727Z" fill="#38BDF8"/>
</g>
</g>
<defs>
<clipPath id="clip0_443_27464">
<rect width="22" height="14" fill="white" transform="translate(1 5)"/>
</clipPath>
</defs>
</svg>
