<svg width="24" height="24" viewBox="0 0 24 24" fill="none" xmlns="http://www.w3.org/2000/svg">
<g clip-path="url(#clip0_443_27359)">
<path d="M21.6562 0H2.34375C1.04933 0 0 1.04933 0 2.34375V21.6562C0 22.9507 1.04933 24 2.34375 24H21.6562C22.9507 24 24 22.9507 24 21.6562V2.34375C24 1.04933 22.9507 0 21.6562 0Z" fill="#3178C6"/>
<path fill-rule="evenodd" clip-rule="evenodd" d="M14.8594 19.0775V21.4213C15.2391 21.6181 15.7031 21.7635 16.2187 21.8619C16.7344 21.9603 17.2969 22.0072 17.8594 22.0072C18.4219 22.0072 18.9375 21.9556 19.4531 21.8478C19.9687 21.74 20.3906 21.5619 20.7656 21.3322C21.1453 21.0838 21.4687 20.7697 21.6562 20.3478C21.8437 19.926 21.9891 19.4572 21.9891 18.8478C21.9891 18.4213 21.9234 18.051 21.7969 17.7228C21.6703 17.3947 21.4875 17.1135 21.2344 16.8791C20.9953 16.6306 20.7187 16.4103 20.3906 16.2228C20.0625 16.0353 19.6875 15.8385 19.2656 15.6603C18.9562 15.5338 18.7031 15.4119 18.4219 15.29C18.1781 15.1681 17.9672 15.0463 17.8125 14.9244C17.6391 14.7978 17.5078 14.6666 17.4141 14.5306C17.3203 14.39 17.2734 14.2353 17.2734 14.0619C17.2734 13.9025 17.3152 13.7572 17.4 13.626C17.4848 13.4947 17.6016 13.3869 17.7516 13.2931C17.9016 13.1994 18.0891 13.1291 18.3141 13.0775C18.5344 13.026 18.7781 13.0025 19.0641 13.0025C19.2609 13.0025 19.4672 13.0171 19.6734 13.0466C19.8891 13.0761 20.1094 13.1216 20.3297 13.1825C20.55 13.2435 20.7656 13.3185 20.9859 13.4122C21.1922 13.506 21.3844 13.6138 21.5484 13.7356V11.5325C21.1922 11.3966 20.7984 11.2935 20.3766 11.2278C19.9547 11.1622 19.4859 11.1294 18.9234 11.1294C18.3609 11.1294 17.8453 11.1903 17.3297 11.3075C16.8141 11.4247 16.3922 11.6122 16.0172 11.87C15.6375 12.1231 15.3609 12.4325 15.1266 12.8544C14.9062 13.2481 14.7984 13.6981 14.7984 14.2606C14.7984 14.9638 15 15.5731 15.4078 16.0419C15.8109 16.5575 16.4391 16.9325 17.2359 17.3075C17.5594 17.4388 17.8453 17.57 18.1266 17.6966C18.4078 17.8231 18.6422 17.9544 18.8297 18.0903C19.0312 18.2263 19.1906 18.3763 19.2984 18.5356C19.4156 18.695 19.4766 18.8825 19.4766 19.0981C19.4766 19.2481 19.44 19.3888 19.3687 19.52C19.2975 19.6513 19.1859 19.7638 19.0359 19.8575C18.8859 19.9513 18.7031 20.0263 18.4734 20.0825C18.2531 20.1341 18.0047 20.1622 17.6766 20.1622C17.1609 20.1622 16.6453 20.0731 16.1766 19.895C15.6609 19.7169 15.1922 19.4497 14.7703 19.0981L14.8594 19.0775ZM10.9219 13.3119H13.9219V11.39H5.53125V13.3119H8.53125V21.89H10.9219V13.3119Z" fill="white"/>
</g>
<defs>
<clipPath id="clip0_443_27359">
<rect width="24" height="24" fill="white"/>
</clipPath>
</defs>
</svg>
